<?xml version="1.0" encoding="UTF-8"?>
<svg version="1.1" xmlns="http://www.w3.org/2000/svg" width="109" height="138">
<path d="M0 0 C2.5625 1.375 2.5625 1.375 4 4 C4.81023131 9.05754915 4.79564077 12.75681129 2 17.125 C1.34 17.74375 0.68 18.3625 0 19 C1.10794922 19.14501953 1.10794922 19.14501953 2.23828125 19.29296875 C5.36662268 20.09385955 6.8082616 21.16336202 9.1875 23.3125 C9.86167969 23.90675781 10.53585938 24.50101563 11.23046875 25.11328125 C14.64761685 28.75673055 15.26228602 31.55052504 15.1875 36.5 C15.18105469 37.4384375 15.17460938 38.376875 15.16796875 39.34375 C15.01857816 41.70620585 14.66710889 43.73716665 14 46 C14.56589844 46.38671875 15.13179688 46.7734375 15.71484375 47.171875 C16.44832031 47.69265625 17.18179688 48.2134375 17.9375 48.75 C18.66839844 49.26046875 19.39929688 49.7709375 20.15234375 50.296875 C22.20805399 52.19177915 22.62669176 53.27425729 23 56 C23.51949219 55.33871094 24.03898437 54.67742188 24.57421875 53.99609375 C25.27160156 53.15175781 25.96898438 52.30742188 26.6875 51.4375 C27.71423828 50.16712891 27.71423828 50.16712891 28.76171875 48.87109375 C31 47 31 47 33.58984375 47.08203125 C37.01518446 48.38665859 38.77123615 50.11571737 41 53 C41.30888428 56.91253417 39.3507639 58.95680439 36.9375 61.8125 C35.96727525 62.88317154 34.99093014 63.94846252 34 65 C34.474375 65.680625 34.94875 66.36125 35.4375 67.0625 C38.09868543 72.0655286 38.46882704 76.17427791 36.875 81.5625 C34.72600786 87.24474497 32.12910679 90.77166916 26.75 93.875 C20.61410967 95.7157671 15.2093152 95.35079839 9 94 C8.28714844 94.94101563 7.57429688 95.88203125 6.83984375 96.8515625 C-4.86324731 112.13372442 -4.86324731 112.13372442 -13 116 C-12.175 116.66 -11.35 117.32 -10.5 118 C-7.6948915 121.3661302 -7.2142926 122.824269 -7.52734375 127.0625 C-8.40573331 130.66317126 -9.94932578 132.00772296 -13 134 C-16.15548795 134.68499916 -18.84863583 134.71728811 -22 134 C-24.70879965 131.8858149 -25.7230135 130.44616111 -26.37109375 127.0625 C-26.61780297 123.11515249 -26.24696985 121.37045478 -24 118 C-23.34 117.34 -22.68 116.68 -22 116 C-23.19625 115.505 -24.3925 115.01 -25.625 114.5 C-30.49009092 112.08905797 -33.25980148 108.61756636 -36 104 C-37.4700271 99.5899187 -37.91036877 95.02811884 -35.98828125 90.74609375 C-35.66214844 90.16988281 -35.33601563 89.59367187 -35 89 C-35.66128906 88.48050781 -36.32257812 87.96101563 -37.00390625 87.42578125 C-37.84824219 86.72839844 -38.69257812 86.03101562 -39.5625 85.3125 C-40.40941406 84.62800781 -41.25632812 83.94351563 -42.12890625 83.23828125 C-44 81 -44 81 -43.77734375 78.23046875 C-43.52082031 77.49441406 -43.26429687 76.75835937 -43 76 C-43.61488281 76.78246094 -44.22976562 77.56492187 -44.86328125 78.37109375 C-46.07564453 79.88896484 -46.07564453 79.88896484 -47.3125 81.4375 C-48.51326172 82.95150391 -48.51326172 82.95150391 -49.73828125 84.49609375 C-52 87 -52 87 -55 88 C-57.04296875 86.56640625 -57.04296875 86.56640625 -59.1875 84.5625 C-59.90292969 83.90378906 -60.61835937 83.24507813 -61.35546875 82.56640625 C-61.89816406 82.04949219 -62.44085938 81.53257813 -63 81 C-62.38801624 77.56049636 -61.07941153 75.48435515 -58.9375 72.75 C-58.38964844 72.04359375 -57.84179688 71.3371875 -57.27734375 70.609375 C-56.85582031 70.07828125 -56.43429688 69.5471875 -56 69 C-56.495 68.401875 -56.99 67.80375 -57.5 67.1875 C-59.72968621 62.4494168 -59.77134206 58.14708627 -59 53 C-56.6442422 47.16392512 -52.65566689 42.82783345 -47 40 C-44.87764193 39.8770062 -42.75088537 39.82444318 -40.625 39.8125 C-38.91183594 39.79123047 -38.91183594 39.79123047 -37.1640625 39.76953125 C-34.16063184 39.98829966 -32.52074066 40.42919363 -30 42 C-29.91234375 41.44054688 -29.8246875 40.88109375 -29.734375 40.3046875 C-28.78747629 37.3330373 -27.23695862 35.52279593 -25.25 33.125 C-24.52425781 32.2484375 -23.79851563 31.371875 -23.05078125 30.46875 C-22.37402344 29.6540625 -21.69726562 28.839375 -21 28 C-20.53980469 27.3915625 -20.07960937 26.783125 -19.60546875 26.15625 C-16.55860915 22.16170497 -13.40018094 20.2432295 -9 18 C-9.66 17.54625 -10.32 17.0925 -11 16.625 C-13.65892979 13.13515465 -13.58015334 10.64678683 -13.37109375 6.3515625 C-13 4 -13 4 -11.5625 1.375 C-7.70940896 -0.69251226 -4.27200781 -0.73682337 0 0 Z M-8 33 C-7.67 33.66 -7.34 34.32 -7 35 C-6.67 34.34 -6.34 33.68 -6 33 C-6.66 33 -7.32 33 -8 33 Z M-1 33 C-0.34 33.66 0.32 34.32 1 35 C1 34.34 1 33.68 1 33 C0.34 33 -0.32 33 -1 33 Z M-12 38 C-12.45890625 38.62648437 -12.9178125 39.25296875 -13.390625 39.8984375 C-14.00421875 40.71570312 -14.6178125 41.53296875 -15.25 42.375 C-15.85328125 43.18710937 -16.4565625 43.99921875 -17.078125 44.8359375 C-19 47 -19 47 -23 49 C-20.03 51.64 -17.06 54.28 -14 57 C-14.33 58.32 -14.66 59.64 -15 61 C-9.94336573 57.57933564 -7.16492103 53.08997609 -4 48 C-4.49371094 47.61328125 -4.98742187 47.2265625 -5.49609375 46.828125 C-6.45708984 46.04695313 -6.45708984 46.04695313 -7.4375 45.25 C-8.39462891 44.48429687 -8.39462891 44.48429687 -9.37109375 43.703125 C-11.18810554 41.80332371 -11.60423197 40.56413092 -12 38 Z M-43 53 C-43 53.33 -43 53.66 -43 54 C-41.35 54 -39.7 54 -38 54 C-38 53.67 -38 53.34 -38 53 C-39.65 53 -41.3 53 -43 53 Z M-44 54 C-44.66 55.32 -45.32 56.64 -46 58 C-45.01 57.34 -44.02 56.68 -43 56 C-43.33 55.34 -43.66 54.68 -44 54 Z M-37 55 C-36.01 56.485 -36.01 56.485 -35 58 C-34.34 57.67 -33.68 57.34 -33 57 C-34.32 56.34 -35.64 55.68 -37 55 Z M6 57 C3.36 60.3 0.72 63.6 -2 67 C-0.68 67.33 0.64 67.66 2 68 C2 68.66 2 69.32 2 70 C5.47998507 73.63633539 5.47998507 73.63633539 10 75 C10.4125 74.113125 10.825 73.22625 11.25 72.3125 C12.90109434 69.18721429 14.75399822 66.71069181 17 64 C17 63.67 17 63.34 17 63 C16.113125 62.7525 15.22625 62.505 14.3125 62.25 C11 61 11 61 6 57 Z M21 57 C20.01 57.99 19.02 58.98 18 60 C18.33 60.66 18.66 61.32 19 62 C19.99 61.01 20.98 60.02 22 59 C21.67 58.34 21.34 57.68 21 57 Z M-33 58 C-33.061875 59.051875 -33.12375 60.10375 -33.1875 61.1875 C-34.13408616 65.6291735 -35.59156258 67.11593757 -39 70 C-38.67 70.66 -38.34 71.32 -38 72 C-37.278125 72.12375 -36.55625 72.2475 -35.8125 72.375 C-32.25637192 73.16525068 -29.93113593 74.88685549 -27 77 C-24.36 73.7 -21.72 70.4 -19 67 C-20.32 66.34 -21.64 65.68 -23 65 C-24.58559197 63.82213168 -26.14760227 62.61200876 -27.6875 61.375 C-30.07795191 59.09349091 -30.07795191 59.09349091 -33 58 Z M-17 62 C-17.66 63.32 -18.32 64.64 -19 66 C-18.01 65.34 -17.02 64.68 -16 64 C-16.33 63.34 -16.66 62.68 -17 62 Z M-5 70 C-5.66 71.32 -6.32 72.64 -7 74 C-6.01 73.34 -5.02 72.68 -4 72 C-4.33 71.34 -4.66 70.68 -5 70 Z M-9 75 C-11.64 77.97 -14.28 80.94 -17 84 C-15.00656233 88.01165262 -15.00656233 88.01165262 -12 91 C-11.34 91 -10.68 91 -10 91 C-9.67 92.32 -9.34 93.64 -9 95 C-5.04 90.545 -5.04 90.545 -1 86 C-2.99343767 81.98834738 -2.99343767 81.98834738 -6 79 C-6.66 79 -7.32 79 -8 79 C-8.33 77.68 -8.66 76.36 -9 75 Z M12 77 C12.33 77.66 12.66 78.32 13 79 C13.66 78.67 14.32 78.34 15 78 C14.01 77.67 13.02 77.34 12 77 Z M23 77 C21.515 78.98 21.515 78.98 20 81 C21.32 80.34 22.64 79.68 24 79 C23.67 78.34 23.34 77.68 23 77 Z M-13 97 C-13.66 98.32 -14.32 99.64 -15 101 C-14.01 100.34 -13.02 99.68 -12 99 C-12.33 98.34 -12.66 97.68 -13 97 Z M-22 100 C-21.67 100.66 -21.34 101.32 -21 102 C-20.01 101.67 -19.02 101.34 -18 101 C-19.32 100.67 -20.64 100.34 -22 100 Z " fill="#FE2E15" transform="translate(64,2)"/>
<path d="M0 0 C3.57490748 0.09661912 5.03333435 1.02608775 7.875 3.25 C10 6 10 6 10.1875 8.375 C8.46884098 12.17414099 5.84200804 14.98416884 3 18 C3.474375 18.680625 3.94875 19.36125 4.4375 20.0625 C7.09868543 25.0655286 7.46882704 29.17427791 5.875 34.5625 C3.72600786 40.24474497 1.12910679 43.77166916 -4.25 46.875 C-10.38589033 48.7157671 -15.7906848 48.35079839 -22 47 C-22.71285156 47.94101563 -23.42570312 48.88203125 -24.16015625 49.8515625 C-35.86324731 65.13372442 -35.86324731 65.13372442 -44 69 C-43.175 69.66 -42.35 70.32 -41.5 71 C-38.6948915 74.3661302 -38.2142926 75.824269 -38.52734375 80.0625 C-39.40573331 83.66317126 -40.94932578 85.00772296 -44 87 C-47.15548795 87.68499916 -49.84863583 87.71728811 -53 87 C-55.70879965 84.8858149 -56.7230135 83.44616111 -57.37109375 80.0625 C-57.61780297 76.11515249 -57.24696985 74.37045478 -55 71 C-54.01 70.01 -54.01 70.01 -53 69 C-54.19625 68.505 -55.3925 68.01 -56.625 67.5 C-61.49009092 65.08905797 -64.25980148 61.61756636 -67 57 C-68.28317892 53.15046324 -68.06643637 50.05261865 -68 46 C-66.35 45.34 -64.7 44.68 -63 44 C-61.65787938 45.09346881 -60.32652025 46.2001575 -59 47.3125 C-58.2575 47.92738281 -57.515 48.54226562 -56.75 49.17578125 C-55 51 -55 51 -55 54 C-54.34 54 -53.68 54 -53 54 C-53 54.66 -53 55.32 -53 56 C-50.69 56 -48.38 56 -46 56 C-45.7628125 55.4534375 -45.525625 54.906875 -45.28125 54.34375 C-43.10659953 50.36573085 -40.01255435 47.10574605 -37.09375 43.65625 C-35.36158438 41.45872645 -34.10602557 39.54866762 -33 37 C-35.97 34.525 -35.97 34.525 -39 32 C-38.55376936 26.9427194 -36.49357358 24.49357358 -33 21 C-31.68 21 -30.36 21 -29 21 C-29 21.66 -29 22.32 -29 23 C-28.4225 23.268125 -27.845 23.53625 -27.25 23.8125 C-24.9674132 25.01719859 -23.0262058 26.40798115 -21 28 C-20.92910156 27.28199219 -20.85820313 26.56398438 -20.78515625 25.82421875 C-19.77299411 22.18345642 -18.05675802 20.5197331 -15.4375 17.8125 C-11.24136451 13.36953301 -7.35357795 8.81144717 -3.59375 3.99609375 C-2 2 -2 2 0 0 Z M-19 30 C-18.67 30.66 -18.34 31.32 -18 32 C-17.34 31.67 -16.68 31.34 -16 31 C-16.99 30.67 -17.98 30.34 -19 30 Z M-8 30 C-9.485 31.98 -9.485 31.98 -11 34 C-9.68 33.34 -8.36 32.68 -7 32 C-7.33 31.34 -7.66 30.68 -8 30 Z " fill="#FE2D14" transform="translate(95,49)"/>
<path d="M0 0 C1.11890625 -0.03738281 2.2378125 -0.07476562 3.390625 -0.11328125 C9.90990041 0.712999 14.63805496 5.73396405 19.5 9.875 C20.07621094 10.35646484 20.65242188 10.83792969 21.24609375 11.33398438 C23.84668379 13.53751463 25.84707999 15.45811998 27.75 18.3125 C26.82161713 19.63146465 25.88194268 20.94248689 24.9375 22.25 C24.15439453 23.34634766 24.15439453 23.34634766 23.35546875 24.46484375 C21.75 26.3125 21.75 26.3125 18.75 27.3125 C16.26953125 25.66015625 16.26953125 25.66015625 13.5625 23.375 C12.66144531 22.62347656 11.76039062 21.87195313 10.83203125 21.09765625 C10.14496094 20.50855469 9.45789063 19.91945313 8.75 19.3125 C8.65912109 20.61960937 8.65912109 20.61960937 8.56640625 21.953125 C7.5717248 26.04607261 5.58208471 28.18090628 2.6875 31.0625 C1.68341821 32.10279296 0.68214593 33.14580441 -0.31640625 34.19140625 C-0.81285645 34.70977051 -1.30930664 35.22813477 -1.82080078 35.76220703 C-4.63282758 38.81249234 -7.10091118 42.13775701 -9.59375 45.44921875 C-11.25 47.3125 -11.25 47.3125 -14.25 48.3125 C-16.29296875 46.87890625 -16.29296875 46.87890625 -18.4375 44.875 C-19.15292969 44.21628906 -19.86835938 43.55757812 -20.60546875 42.87890625 C-21.14816406 42.36199219 -21.69085937 41.84507813 -22.25 41.3125 C-21.63801624 37.87299636 -20.32941153 35.79685515 -18.1875 33.0625 C-17.63964844 32.35609375 -17.09179688 31.6496875 -16.52734375 30.921875 C-16.10582031 30.39078125 -15.68429688 29.8596875 -15.25 29.3125 C-15.745 28.714375 -16.24 28.11625 -16.75 27.5 C-18.97968621 22.7619168 -19.02134206 18.45958627 -18.25 13.3125 C-14.87265404 4.94557709 -8.97678571 0.19470197 0 0 Z M-2.25 13.3125 C-2.25 13.6425 -2.25 13.9725 -2.25 14.3125 C-0.6 14.3125 1.05 14.3125 2.75 14.3125 C2.75 13.9825 2.75 13.6525 2.75 13.3125 C1.1 13.3125 -0.55 13.3125 -2.25 13.3125 Z M-3.25 14.3125 C-3.91 15.6325 -4.57 16.9525 -5.25 18.3125 C-4.26 17.6525 -3.27 16.9925 -2.25 16.3125 C-2.58 15.6525 -2.91 14.9925 -3.25 14.3125 Z M3.75 15.3125 C4.74 16.7975 4.74 16.7975 5.75 18.3125 C6.41 17.9825 7.07 17.6525 7.75 17.3125 C6.43 16.6525 5.11 15.9925 3.75 15.3125 Z " fill="#FD2C13" transform="translate(23.25,41.6875)"/>
<path d="M0 0 C2.5625 1.375 2.5625 1.375 4 4 C4.81023131 9.05754915 4.79564077 12.75681129 2 17.125 C1.34 17.74375 0.68 18.3625 0 19 C1.10794922 19.14501953 1.10794922 19.14501953 2.23828125 19.29296875 C5.36662268 20.09385955 6.8082616 21.16336202 9.1875 23.3125 C9.86167969 23.90675781 10.53585938 24.50101563 11.23046875 25.11328125 C14.64936081 28.75859001 15.2769622 31.60819555 15.25 36.5625 C15.25773437 37.98755859 15.25773437 37.98755859 15.265625 39.44140625 C15 42 15 42 13 45 C12.34 44.01 11.68 43.02 11 42 C9.34928604 40.97388051 7.68029994 39.97691857 6 39 C3.1875 36.9375 3.1875 36.9375 1 35 C1 34.34 1 33.68 1 33 C0.34 33 -0.32 33 -1 33 C-1.33 32.34 -1.66 31.68 -2 31 C-2.99 30.67 -3.98 30.34 -5 30 C-5.33 30.99 -5.66 31.98 -6 33 C-6.66 33 -7.32 33 -8 33 C-8.24363281 33.54011719 -8.48726562 34.08023438 -8.73828125 34.63671875 C-10.31283824 37.58596635 -12.16178103 40.15221846 -14.1875 42.8125 C-14.92355469 43.80894531 -15.65960938 44.80539063 -16.41796875 45.83203125 C-19 48 -19 48 -22.64453125 47.96875 C-26.68363066 46.8026305 -27.96489001 45.64623873 -30 42 C-29.65116766 38.21834033 -27.61767602 35.98223309 -25.25 33.125 C-24.52425781 32.2484375 -23.79851563 31.371875 -23.05078125 30.46875 C-22.37402344 29.6540625 -21.69726562 28.839375 -21 28 C-20.53980469 27.3915625 -20.07960938 26.783125 -19.60546875 26.15625 C-16.55860915 22.16170497 -13.40018094 20.2432295 -9 18 C-9.66 17.54625 -10.32 17.0925 -11 16.625 C-13.65892979 13.13515465 -13.58015334 10.64678683 -13.37109375 6.3515625 C-13 4 -13 4 -11.5625 1.375 C-7.70940896 -0.69251226 -4.27200781 -0.73682337 0 0 Z " fill="#FD2D14" transform="translate(64,2)"/>
<path d="M0 0 C2.31 1.32 4.62 2.64 7 4 C7.39073581 6.90831764 7.5015317 9.13043254 6.00390625 11.72705078 C4.5727348 13.58083264 3.07173485 15.32628127 1.5 17.0625 C0.95698242 17.68012207 0.41396484 18.29774414 -0.14550781 18.93408203 C-4.02162658 23.22394381 -7.79323414 26.39661707 -13 29 C-11.7625 29.99 -11.7625 29.99 -10.5 31 C-7.6948915 34.3661302 -7.2142926 35.824269 -7.52734375 40.0625 C-8.40573331 43.66317126 -9.94932578 45.00772296 -13 47 C-16.15548795 47.68499916 -18.84863583 47.71728811 -22 47 C-24.70879965 44.8858149 -25.7230135 43.44616111 -26.37109375 40.0625 C-26.61780297 36.11515249 -26.24696985 34.37045478 -24 31 C-23.34 30.34 -22.68 29.68 -22 29 C-23.19625 28.505 -24.3925 28.01 -25.625 27.5 C-30.49009092 25.08905797 -33.25980148 21.61756636 -36 17 C-37.28317892 13.15046324 -37.06643637 10.05261865 -37 6 C-35.35 5.34 -33.7 4.68 -32 4 C-30.65787938 5.09346881 -29.32652025 6.2001575 -28 7.3125 C-26.88625 8.23482422 -26.88625 8.23482422 -25.75 9.17578125 C-24 11 -24 11 -24 14 C-23.34 14 -22.68 14 -22 14 C-22 14.66 -22 15.32 -22 16 C-19.69 16 -17.38 16 -15 16 C-14.731875 15.4225 -14.46375 14.845 -14.1875 14.25 C-11.76825074 9.66615929 -9.4268551 7.6350328 -5 5 C-3.2958946 3.37163262 -1.61974559 1.71230248 0 0 Z " fill="#FE2A11" transform="translate(64,89)"/>
<path d="M0 0 C3.55247432 0.87379409 4.94828114 2.4927342 6.9375 5.4765625 C7.63619998 8.31717881 7.630647 10.63523266 6.9375 13.4765625 C4.89954536 16.63210517 3.47025134 18.14383 -0.2578125 18.953125 C-4.30129543 19.20667674 -6.37941212 19.00970426 -9.625 16.4765625 C-11.46722331 12.63192254 -12.01521277 9.65838138 -11.0625 5.4765625 C-8.05531939 0.96579158 -5.26030565 -0.3785826 0 0 Z " fill="#4BF647" transform="translate(49.0625,117.5234375)"/>
<path d="M0 0 C2.5625 1.375 2.5625 1.375 4 4 C4.59691632 7.45522715 4.64767848 10.54953591 4 14 C1.86713926 16.79937971 0.48166476 17.72420497 -2.97265625 18.3671875 C-6.25662664 18.57588842 -8.61904493 18.20952529 -11.5 16.625 C-13.84616124 12.51921782 -13.72722942 8.60833801 -13 4 C-10.19281414 -1.12616549 -5.26615441 -0.90829085 0 0 Z " fill="#4BF647" transform="translate(64,2)"/>
<path d="M0 0 C1.65 0.33 3.3 0.66 5 1 C3.85458104 3.29083792 2.64007111 4.29432988 0.6875 5.9375 C-0.25222656 6.72833984 -0.25222656 6.72833984 -1.2109375 7.53515625 C-3.10019688 9.08203893 -5.01829141 10.57316982 -7 12 C-7 8.19654123 -5.86213669 7.22298985 -3.5 4.3125 C-2.8503125 3.50425781 -2.200625 2.69601563 -1.53125 1.86328125 C-1.0259375 1.24839844 -0.520625 0.63351563 0 0 Z " fill="#FD7868" transform="translate(95,68)"/>
<path d="M0 0 C0.99 0 1.98 0 3 0 C5.1875 2.5 5.1875 2.5 7 5 C6.67 5.66 6.34 6.32 6 7 C4.35 6.01 2.7 5.02 1 4 C-1.31 6.31 -3.62 8.62 -6 11 C-6.66 10.67 -7.32 10.34 -8 10 C-6.74054645 8.32471737 -5.46706318 6.65997386 -4.1875 5 C-3.47980469 4.071875 -2.77210937 3.14375 -2.04296875 2.1875 C-1.36878906 1.465625 -0.69460937 0.74375 0 0 Z " fill="#FD6553" transform="translate(63,86)"/>
<path d="M0 0 C1.32 0.33 2.64 0.66 4 1 C4.33 2.32 4.66 3.64 5 5 C4.2575 5.0825 3.515 5.165 2.75 5.25 C-1.69255313 6.4616054 -3.51382951 9.27074426 -6 13 C-6.33 12.01 -6.66 11.02 -7 10 C-5.8203125 8.28125 -5.8203125 8.28125 -4.125 6.5 C-1.94981696 4.19329426 -1.02666504 3.07999512 0 0 Z " fill="#FE6756" transform="translate(59,32)"/>
<path d="M0 0 C1.65 0.33 3.3 0.66 5 1 C5.33 1.66 5.66 2.32 6 3 C5.29875 2.87625 4.5975 2.7525 3.875 2.625 C-0.39184185 3.18154459 -2.27060946 5.84853876 -5 9 C-5.66 8.67 -6.32 8.34 -7 8 C-4.69 5.36 -2.38 2.72 0 0 Z " fill="#FE5A48" transform="translate(95,49)"/>
<path d="M0 0 C-1.28519565 2.86697492 -2.57129254 4.97607712 -5 7 C-5.66 7 -6.32 7 -7 7 C-3.86206897 0 -3.86206897 0 0 0 Z " fill="#FD5D4A" transform="translate(15,44)"/>
<path d="M0 0 C0.66 0.33 1.32 0.66 2 1 C-0.31 3.31 -2.62 5.62 -5 8 C-5.66 7.67 -6.32 7.34 -7 7 C-4.78071806 4.09197539 -3.07030857 2.04687238 0 0 Z " fill="#FE5543" transform="translate(51,22)"/>
</svg>
